<?xml version="1.0" encoding="UTF-8" standalone="no"?><!DOCTYPE svg PUBLIC "-//W3C//DTD SVG 1.1//EN" "http://www.w3.org/Graphics/SVG/1.1/DTD/svg11.dtd"><svg width="100%" height="100%" viewBox="0 0 1132 801" version="1.1" xmlns="http://www.w3.org/2000/svg" xmlns:xlink="http://www.w3.org/1999/xlink" xml:space="preserve" xmlns:serif="http://www.serif.com/" style="fill-rule:evenodd;clip-rule:evenodd;stroke-linejoin:round;stroke-miterlimit:2;"><rect id="Artboard1" x="0" y="0" width="1131.64" height="801" style="fill:none;"/><clipPath id="_clip1"><rect x="0" y="0" width="1131.64" height="801"/></clipPath><g clip-path="url(#_clip1)"><g><path d="M246.202,413.977l-89.018,288.951l-65.952,0l-87.937,-288.951l62.709,0l53.879,201.097c2.883,10.881 4.625,20.486 5.226,28.815l1.081,-0c0.841,-9.001 2.703,-18.874 5.586,-29.621l53.519,-200.291l60.907,0Z" style="fill-rule:nonzero;"/><path d="M483.343,702.928l-63.43,0l-18.38,-64.278l-91.901,-0l-18.2,64.278l-63.07,0l94.064,-288.951l69.016,0l91.901,288.951Zm-95.145,-114.25l-27.751,-97.123c-2.042,-7.254 -3.483,-15.919 -4.324,-25.994l-1.442,0c-0.601,8.463 -2.102,16.859 -4.505,25.188l-28.111,97.929l66.133,-0Z" style="fill-rule:nonzero;"/><path d="M721.384,577.797c0,86.779 -36.16,130.169 -108.479,130.169c-70.157,-0 -105.236,-42.382 -105.236,-127.147l0,-166.842l58.384,0l0,167.648c0,46.748 16.338,70.122 49.014,70.122c32.076,0 48.113,-22.568 48.113,-67.704l0,-170.066l58.204,0l0,163.82Z" style="fill-rule:nonzero;"/><path d="M931.495,702.928l-153.889,0l-0,-288.951l58.204,0l-0,236.158l95.685,0l0,52.793Z" style="fill-rule:nonzero;"/><path d="M1127.37,466.972l-73.701,-0l0,235.956l-58.384,0l0,-235.956l-73.34,-0l-0,-52.995l205.425,0l0,52.995Z" style="fill-rule:nonzero;"/><rect x="1.493" y="738.795" width="1131.1" height="14.508" style="fill-rule:nonzero;"/></g><g><path d="M139.864,260.13c4.289,14.992 22.451,6.779 26.82,-0.783l112.997,-194.771l39.776,0l-40.245,280.424l-31.631,-0l26.998,-188.123c2.133,-14.862 5.627,-33.048 10.482,-54.559l-0.758,-0c-4.845,12.646 -8.86,21.706 -12.045,27.182l-123.739,215.5l-15.531,-0l-61.919,-213.936c-1.754,-6.257 -3.093,-15.84 -4.019,-28.746l-0.758,-0c-0.599,11.212 -2.722,29.528 -6.371,54.95l-26.942,187.732l-30.684,0l40.245,-280.424l42.049,0l55.275,195.554Z" style="fill-rule:nonzero;"/><path d="M494.572,345l-143.952,-0l40.245,-280.424l137.89,0l-4.265,29.724l-106.07,0l-13.387,93.279l98.114,0l-4.237,29.529l-98.115,-0l-14.088,98.168l112.131,-0l-4.266,29.724Z" style="fill-rule:nonzero;"/><path d="M546.849,345l40.245,-280.424l75.006,0c95.715,0 137.034,45.564 123.956,136.692c-6.212,43.283 -24.529,78.091 -54.952,104.426c-30.278,26.204 -67.705,39.306 -112.279,39.306l-71.976,-0Zm67.8,-250.7l-31.713,220.976l40.533,-0c35.609,-0 64.739,-9.843 87.389,-29.529c22.65,-19.686 36.567,-47.584 41.749,-83.697c10.309,-71.833 -21.534,-107.75 -95.53,-107.75l-42.428,0Z" style="fill-rule:nonzero;"/><path d="M850.663,345l-31.821,-0l40.245,-280.424l31.82,0l-40.244,280.424Z" style="fill-rule:nonzero;"/><path d="M1132.32,345l-35.23,-0l-17.508,-78.613l-115.161,0l-38.368,78.613l-35.42,-0l144.42,-280.424l32.958,0l64.309,280.424Zm-58.918,-108.141l-25.47,-119.483c-0.827,-3.912 -1.318,-10.169 -1.473,-18.774l-0.757,0c-2.404,7.953 -4.754,14.211 -7.051,18.774l-59.386,119.483l94.137,-0Z" style="fill-rule:nonzero;"/></g></g></svg>