<?xml version="1.0" encoding="UTF-8" standalone="no"?><!DOCTYPE svg PUBLIC "-//W3C//DTD SVG 1.1//EN" "http://www.w3.org/Graphics/SVG/1.1/DTD/svg11.dtd"><svg width="100%" height="100%" viewBox="0 0 1241 801" version="1.1" xmlns="http://www.w3.org/2000/svg" xmlns:xlink="http://www.w3.org/1999/xlink" xml:space="preserve" xmlns:serif="http://www.serif.com/" style="fill-rule:evenodd;clip-rule:evenodd;stroke-linejoin:round;stroke-miterlimit:2;"><rect id="Artboard1" x="0" y="0" width="1240.64" height="801" style="fill:none;"/><g><path d="M269.135,413.977l-97.361,288.951l-72.133,0l-96.177,-288.951l68.585,0l58.929,201.097c3.153,10.881 5.058,20.486 5.715,28.815l1.183,-0c0.92,-9.001 2.956,-18.874 6.109,-29.621l58.535,-200.291l66.615,0Z" style="fill:url(#_Linear1);fill-rule:nonzero;"/><path d="M528.499,702.928l-69.374,0l-20.103,-64.278l-100.514,-0l-19.905,64.278l-68.98,0l102.879,-288.951l75.483,0l100.514,288.951Zm-104.061,-114.25l-30.352,-97.123c-2.233,-7.254 -3.81,-15.919 -4.73,-25.994l-1.576,0c-0.657,8.463 -2.3,16.859 -4.927,25.188l-30.746,97.929l72.331,-0Z" style="fill:url(#_Linear2);fill-rule:nonzero;"/><path d="M788.848,577.797c-0,86.779 -39.548,130.169 -118.645,130.169c-76.732,-0 -115.098,-42.382 -115.098,-127.147l0,-166.842l63.856,0l-0,167.648c-0,46.748 17.869,70.122 53.607,70.122c35.081,0 52.621,-22.568 52.621,-67.704l0,-170.066l63.659,0l-0,163.82Z" style="fill:url(#_Linear3);fill-rule:nonzero;"/><path d="M1018.65,702.928l-168.311,0l0,-288.951l63.659,0l-0,236.158l104.652,0l0,52.793Z" style="fill:url(#_Linear4);fill-rule:nonzero;"/><path d="M1232.88,466.972l-80.608,-0l-0,235.956l-63.856,0l0,-235.956l-80.213,-0l-0,-52.995l224.677,0l-0,52.995Z" style="fill:url(#_Linear5);fill-rule:nonzero;"/><rect x="1.493" y="738.795" width="1237.1" height="14.508" style="fill:url(#_Linear6);fill-rule:nonzero;"/></g><g><path d="M152.832,260.13c4.69,14.992 24.555,6.779 29.332,-0.783l123.587,-194.771l43.504,0l-44.016,280.424l-34.596,-0l29.528,-188.123c2.333,-14.862 6.154,-33.048 11.464,-54.559l-0.828,-0c-5.3,12.646 -9.691,21.706 -13.175,27.182l-135.334,215.5l-16.987,-0l-67.722,-213.936c-1.918,-6.257 -3.383,-15.84 -4.395,-28.746l-0.829,-0c-0.655,11.212 -2.978,29.528 -6.968,54.95l-29.467,187.732l-33.56,0l44.016,-280.424l45.99,0l60.456,195.554Z" style="fill:url(#_Linear7);fill-rule:nonzero;"/><path d="M540.78,345l-157.442,-0l44.016,-280.424l150.813,0l-4.665,29.724l-116.01,0l-14.642,93.279l107.309,0l-4.635,29.529l-107.309,-0l-15.408,98.168l122.639,-0l-4.666,29.724Z" style="fill:url(#_Linear8);fill-rule:nonzero;"/><path d="M597.956,345l44.017,-280.424l82.035,0c104.685,0 149.876,45.564 135.572,136.692c-6.794,43.283 -26.828,78.091 -60.102,104.426c-33.115,26.204 -74.049,39.306 -122.801,39.306l-78.721,-0Zm74.154,-250.7l-34.685,220.976l44.332,-0c38.946,-0 70.806,-9.843 95.578,-29.529c24.773,-19.686 39.994,-47.584 45.662,-83.697c11.275,-71.833 -23.553,-107.75 -104.483,-107.75l-46.404,0Z" style="fill:url(#_Linear9);fill-rule:nonzero;"/><path d="M930.242,345l-34.803,-0l44.016,-280.424l34.803,0l-44.016,280.424Z" style="fill:url(#_Linear10);fill-rule:nonzero;"/><path d="M1238.29,345l-38.532,-0l-19.149,-78.613l-125.953,0l-41.964,78.613l-38.739,-0l157.955,-280.424l36.046,0l70.336,280.424Zm-64.44,-108.141l-27.856,-119.483c-0.906,-3.912 -1.443,-10.169 -1.611,-18.774l-0.829,0c-2.629,7.953 -5.2,14.211 -7.711,18.774l-64.951,119.483l102.958,-0Z" style="fill:url(#_Linear11);fill-rule:nonzero;"/></g><defs><linearGradient id="_Linear1" x1="0" y1="0" x2="1" y2="0" gradientUnits="userSpaceOnUse" gradientTransform="matrix(13175.9,0,-7.79238e-30,3273.46,1.49294,-883.425)"><stop offset="0" style="stop-color:#fff;stop-opacity:1"/><stop offset="1" style="stop-color:#33b1cc;stop-opacity:1"/></linearGradient><linearGradient id="_Linear2" x1="0" y1="0" x2="1" y2="0" gradientUnits="userSpaceOnUse" gradientTransform="matrix(13175.9,0,-7.79238e-30,3273.46,1.49294,-883.425)"><stop offset="0" style="stop-color:#fff;stop-opacity:1"/><stop offset="1" style="stop-color:#33b1cc;stop-opacity:1"/></linearGradient><linearGradient id="_Linear3" x1="0" y1="0" x2="1" y2="0" gradientUnits="userSpaceOnUse" gradientTransform="matrix(13175.9,0,-7.79238e-30,3273.46,1.49294,-883.425)"><stop offset="0" style="stop-color:#fff;stop-opacity:1"/><stop offset="1" style="stop-color:#33b1cc;stop-opacity:1"/></linearGradient><linearGradient id="_Linear4" x1="0" y1="0" x2="1" y2="0" gradientUnits="userSpaceOnUse" gradientTransform="matrix(13175.9,0,-7.79238e-30,3273.46,1.49294,-883.425)"><stop offset="0" style="stop-color:#fff;stop-opacity:1"/><stop offset="1" style="stop-color:#33b1cc;stop-opacity:1"/></linearGradient><linearGradient id="_Linear5" x1="0" y1="0" x2="1" y2="0" gradientUnits="userSpaceOnUse" gradientTransform="matrix(13175.9,0,-7.79238e-30,3273.46,1.49294,-883.425)"><stop offset="0" style="stop-color:#fff;stop-opacity:1"/><stop offset="1" style="stop-color:#33b1cc;stop-opacity:1"/></linearGradient><linearGradient id="_Linear6" x1="0" y1="0" x2="1" y2="0" gradientUnits="userSpaceOnUse" gradientTransform="matrix(13175.9,0,-7.79238e-30,3273.46,1.49294,-883.425)"><stop offset="0" style="stop-color:#fff;stop-opacity:1"/><stop offset="1" style="stop-color:#33b1cc;stop-opacity:1"/></linearGradient><linearGradient id="_Linear7" x1="0" y1="0" x2="1" y2="0" gradientUnits="userSpaceOnUse" gradientTransform="matrix(1769.11,0,9.77737e-30,384.913,-530.818,257.032)"><stop offset="0" style="stop-color:#fff;stop-opacity:1"/><stop offset="1" style="stop-color:#33b1cc;stop-opacity:1"/></linearGradient><linearGradient id="_Linear8" x1="0" y1="0" x2="1" y2="0" gradientUnits="userSpaceOnUse" gradientTransform="matrix(1769.11,0,9.77737e-30,384.913,-530.818,257.032)"><stop offset="0" style="stop-color:#fff;stop-opacity:1"/><stop offset="1" style="stop-color:#33b1cc;stop-opacity:1"/></linearGradient><linearGradient id="_Linear9" x1="0" y1="0" x2="1" y2="0" gradientUnits="userSpaceOnUse" gradientTransform="matrix(1769.11,0,9.77737e-30,384.913,-530.818,257.032)"><stop offset="0" style="stop-color:#fff;stop-opacity:1"/><stop offset="1" style="stop-color:#33b1cc;stop-opacity:1"/></linearGradient><linearGradient id="_Linear10" x1="0" y1="0" x2="1" y2="0" gradientUnits="userSpaceOnUse" gradientTransform="matrix(1769.11,0,9.77737e-30,384.913,-530.818,257.032)"><stop offset="0" style="stop-color:#fff;stop-opacity:1"/><stop offset="1" style="stop-color:#33b1cc;stop-opacity:1"/></linearGradient><linearGradient id="_Linear11" x1="0" y1="0" x2="1" y2="0" gradientUnits="userSpaceOnUse" gradientTransform="matrix(1769.11,0,9.77737e-30,384.913,-530.818,257.032)"><stop offset="0" style="stop-color:#fff;stop-opacity:1"/><stop offset="1" style="stop-color:#33b1cc;stop-opacity:1"/></linearGradient></defs></svg>